<svg width="92" height="92" viewBox="0 0 92 92" fill="none" xmlns="http://www.w3.org/2000/svg">
<path d="M86.959 36.9077H82.0822C81.1756 33.3736 79.7608 30.0636 77.9157 27.0359L81.4218 23.5218C82.3683 22.5752 82.8886 21.3125 82.8886 19.9717C82.8886 18.6329 82.3643 17.3682 81.4218 16.4236L75.5784 10.5862C73.6832 8.6891 70.3713 8.6911 68.4842 10.5842L64.83 14.2163C61.8363 12.4713 58.6264 11.1265 55.0903 10.262V5.04296C55.0903 2.27534 52.879 0 50.1114 0H41.8506C39.0829 0 36.9057 2.27534 36.9057 5.04296V10.26C33.3716 11.1225 30.1417 12.4693 27.1439 14.2163L23.4918 10.5842C21.5987 8.6871 18.2847 8.6891 16.3856 10.5822L10.5462 16.4196C9.60964 17.3542 9.07533 18.6469 9.07533 19.9677C9.07533 21.3065 9.59363 22.5672 10.5422 23.5138L14.0482 27.0359C12.2052 30.0636 10.7883 33.3736 9.8838 36.9077H5.00494C2.23531 36.9077 0 39.133 0 41.8946V50.1494C0 52.9191 2.23531 55.0943 5.00494 55.0943H9.8838C10.7883 58.6284 12.2032 61.9584 14.0442 64.9861L10.5382 68.5142C9.58963 69.4608 9.06932 70.7275 9.06932 72.0683C9.06932 73.4091 9.59163 74.6758 10.5382 75.6224L16.3816 81.4638C17.3302 82.4104 18.5889 82.9307 19.9277 82.9307C21.2665 82.9307 22.5272 82.4084 23.4758 81.4638L27.1439 77.8297C30.1417 79.5767 33.3716 80.9215 36.9057 81.788V86.9991C36.9057 89.7667 39.0829 91.998 41.8506 91.998H50.1114C52.879 91.998 55.0903 89.7667 55.0903 86.9991V81.786C58.6264 80.9215 61.8363 79.5767 64.834 77.8297L68.4702 81.4558C69.4187 82.4064 70.6795 82.9267 72.0223 82.9267C73.3631 82.9267 74.6258 82.4044 75.5723 81.4598L81.4158 75.6224C82.3623 74.6778 82.8806 73.4151 82.8846 72.0763C82.8846 70.7355 82.3603 69.4768 81.4158 68.5282L77.9137 64.9861C79.7548 61.9564 81.1696 58.6244 82.0762 55.0943H86.955C89.7227 55.0943 91.998 52.9191 91.998 50.1494V41.8946C92 39.133 89.7267 36.9077 86.959 36.9077ZM45.979 61.7362C37.2178 61.7362 30.1137 54.6981 30.1137 46.023C30.1137 37.3419 37.2178 30.3138 45.979 30.3138C54.7421 30.3138 61.8503 37.3419 61.8503 46.023C61.8483 54.7001 54.7421 61.7362 45.979 61.7362Z" fill="#7D7D7D"/>
</svg>
