<svg width="239" height="86" viewBox="0 0 239 86" fill="none" xmlns="http://www.w3.org/2000/svg">
<rect width="239" height="86" rx="4" fill="black"/>
<path d="M67.8945 26C55.8028 26 46 35.626 46 47.5001C46 59.3747 55.8028 69 67.8945 69C79.9875 69 89.7893 59.3747 89.7893 47.5001C89.7893 35.6268 79.9875 26.001 67.8942 26.001L67.8945 26ZM77.9352 57.0094C77.543 57.6409 76.7011 57.8412 76.058 57.4535C70.9174 54.37 64.446 53.6717 56.8248 55.3816C56.0904 55.5459 55.3583 55.0941 55.191 54.3726C55.0229 53.6512 55.4812 52.9323 56.2174 52.768C64.5576 50.8968 71.7116 51.7025 77.4829 55.1659C78.126 55.5536 78.33 56.3778 77.9352 57.0094ZM80.615 51.1551C80.1209 51.9438 79.0699 52.1929 78.2672 51.7076C72.382 48.1553 63.4109 47.1266 56.4498 49.2016C55.5471 49.4693 54.5936 48.9697 54.3196 48.0847C54.0477 47.1982 54.5567 46.2637 55.4579 45.9941C63.4093 43.6249 73.2945 44.7725 80.0529 48.8509C80.8556 49.3361 81.1092 50.3679 80.615 51.1551ZM80.8451 45.059C73.7886 40.9432 62.1463 40.5647 55.409 42.5727C54.3271 42.8949 53.183 42.2952 52.8552 41.2328C52.5273 40.1699 53.1375 39.0471 54.2202 38.7242C61.9541 36.4186 74.8109 36.8641 82.9351 41.6002C83.9103 42.1673 84.2293 43.4015 83.6515 44.3558C83.0763 45.3114 81.8161 45.6264 80.8461 45.059H80.8451ZM105.568 45.8477C101.787 44.9625 101.115 44.3412 101.115 43.0356C101.115 41.8022 102.297 40.9722 104.057 40.9722C105.761 40.9722 107.45 41.6025 109.223 42.9001C109.275 42.9394 109.343 42.955 109.408 42.9447C109.476 42.935 109.534 42.8993 109.573 42.8456L111.419 40.2905C111.495 40.1853 111.474 40.0402 111.372 39.9599C109.262 38.298 106.888 37.49 104.111 37.49C100.03 37.49 97.1778 39.8954 97.1778 43.337C97.1778 47.0277 99.638 48.3345 103.889 49.3433C107.505 50.1615 108.117 50.847 108.117 52.0722C108.117 53.4304 106.883 54.275 104.896 54.275C102.689 54.275 100.888 53.5433 98.8746 51.8334C98.8249 51.7898 98.7569 51.7718 98.6942 51.7744C98.6262 51.7795 98.5661 51.8103 98.5243 51.8591L96.4536 54.2776C96.3673 54.3803 96.3778 54.5292 96.4771 54.6165C98.8197 56.6705 101.701 57.7539 104.812 57.7539C109.21 57.7539 112.052 55.3944 112.052 51.741C112.059 48.6583 110.18 46.951 105.576 45.8511L105.568 45.8477ZM122.002 42.1866C120.096 42.1866 118.533 42.924 117.241 44.4349V42.7342C117.241 42.5999 117.132 42.4906 116.996 42.4906H113.61C113.474 42.4906 113.364 42.5999 113.364 42.7342V61.6307C113.364 61.7642 113.474 61.8746 113.61 61.8746H116.996C117.132 61.8746 117.241 61.7642 117.241 61.6307V55.6666C118.533 57.0864 120.096 57.7822 122.002 57.7822C125.545 57.7822 129.132 55.1043 129.132 49.9851C129.137 44.8649 125.55 42.1863 122.005 42.1863L122.002 42.1866ZM125.195 49.9851C125.195 52.5908 123.561 54.4111 121.218 54.4111C118.904 54.4111 117.158 52.5087 117.158 49.9851C117.158 47.4614 118.904 45.5594 121.218 45.5594C123.521 45.5592 125.195 47.4203 125.195 49.9851ZM138.322 42.1866C133.76 42.1866 130.186 45.6362 130.186 50.0409C130.186 54.3983 133.736 57.8104 138.267 57.8104C142.845 57.8104 146.43 54.3726 146.43 49.9851C146.43 45.6126 142.869 42.1871 138.322 42.1871V42.1866ZM138.322 54.4368C135.896 54.4368 134.066 52.5215 134.066 49.9839C134.066 47.4347 135.833 45.5848 138.267 45.5848C140.709 45.5848 142.55 47.4994 142.55 50.0396C142.55 52.5883 140.772 54.4368 138.322 54.4368ZM156.171 42.4906H152.445V38.7509C152.445 38.6168 152.336 38.5075 152.2 38.5075H148.814C148.678 38.5075 148.566 38.6168 148.566 38.7509V42.4906H146.939C146.803 42.4906 146.694 42.5999 146.694 42.7342V45.591C146.694 45.725 146.803 45.8346 146.939 45.8346H148.566V53.2275C148.566 56.2135 150.079 57.7282 153.068 57.7282C154.281 57.7282 155.287 57.4818 156.236 56.9529C156.315 56.9118 156.362 56.8296 156.362 56.7423V54.0209C156.362 53.9387 156.317 53.8591 156.244 53.8155C156.171 53.7693 156.08 53.7667 156.004 53.8052C155.353 54.1261 154.723 54.275 154.017 54.275C152.932 54.275 152.445 53.7898 152.445 52.7064V45.8359H156.171C156.307 45.8359 156.417 45.7266 156.417 45.5923V42.7358C156.422 42.6015 156.312 42.4921 156.174 42.4921L156.171 42.4906ZM169.149 42.5052V42.0459C169.149 40.6947 169.678 40.0921 170.859 40.0921C171.565 40.0921 172.133 40.2297 172.768 40.4377C172.846 40.4618 172.927 40.4497 172.99 40.4038C173.055 40.3578 173.092 40.2841 173.092 40.2061V37.405C173.092 37.298 173.024 37.2032 172.917 37.1716C172.248 36.9757 171.39 36.7747 170.104 36.7747C166.979 36.7747 165.324 38.5036 165.324 41.7727V42.4762H163.698C163.562 42.4762 163.45 42.5856 163.45 42.7196V45.591C163.45 45.725 163.562 45.8346 163.698 45.8346H165.324V57.2353C165.324 57.3714 165.437 57.4792 165.573 57.4792H168.956C169.094 57.4792 169.204 57.3714 169.204 57.2353V45.8354H172.365L177.207 57.2353C176.658 58.4317 176.117 58.6705 175.38 58.6705C174.784 58.6705 174.154 58.4959 173.513 58.1493C173.453 58.1185 173.38 58.1133 173.317 58.1313C173.252 58.1544 173.197 58.2006 173.17 58.2623L172.023 60.7347C171.968 60.8528 172.015 60.9889 172.13 61.0505C173.327 61.6872 174.407 61.9594 175.743 61.9594C178.243 61.9594 179.626 60.8143 180.841 57.7385L186.714 42.8379C186.745 42.763 186.734 42.6782 186.687 42.6118C186.643 42.5458 186.567 42.506 186.486 42.506H182.962C182.855 42.506 182.76 42.572 182.726 42.6693L179.116 52.7936L175.163 42.6626C175.126 42.5684 175.035 42.506 174.933 42.506H169.149V42.5052ZM161.625 42.4906H158.239C158.103 42.4906 157.991 42.5999 157.991 42.7342V57.2353C157.991 57.3714 158.103 57.4792 158.239 57.4792H161.625C161.761 57.4792 161.873 57.3714 161.873 57.2353V42.7352C161.873 42.601 161.763 42.4916 161.625 42.4916V42.4906ZM159.952 35.8874C158.61 35.8874 157.523 36.9534 157.523 38.2702C157.523 39.5878 158.61 40.6551 159.952 40.6551C161.293 40.6551 162.378 39.5878 162.378 38.2702C162.378 36.9537 161.29 35.8874 159.952 35.8874ZM189.605 47.1533C188.267 47.1533 187.223 46.0968 187.223 44.8138C187.223 43.5309 188.28 42.4623 189.618 42.4623C190.957 42.4623 192 43.5186 192 44.8005C192 46.0834 190.944 47.1533 189.605 47.1533ZM189.618 42.6949C188.397 42.6949 187.474 43.6475 187.474 44.8138C187.474 45.9797 188.392 46.9194 189.605 46.9194C190.826 46.9194 191.749 45.9676 191.749 44.8005C191.749 43.6346 190.831 42.6949 189.618 42.6949ZM190.146 45.041L190.821 45.9674H190.251L189.644 45.1176H189.124V45.9674H188.648V43.5119H189.762C190.345 43.5119 190.727 43.8038 190.727 44.2952C190.729 44.6978 190.491 44.9437 190.149 45.041H190.146ZM189.744 43.9332H189.124V44.7099H189.744C190.052 44.7099 190.238 44.5612 190.238 44.3211C190.238 44.0685 190.052 43.9332 189.744 43.9332Z" fill="#1ED760"/>
<path d="M97.184 31V19.64H99.392V29.064H105.184V31H97.184ZM111.249 31.16C110.567 31.16 109.953 31.048 109.409 30.824C108.865 30.5893 108.401 30.2693 108.017 29.864C107.644 29.4587 107.356 28.9947 107.153 28.472C106.951 27.9493 106.849 27.4 106.849 26.824C106.849 26.2373 106.951 25.6827 107.153 25.16C107.356 24.6373 107.644 24.1733 108.017 23.768C108.401 23.3627 108.865 23.048 109.409 22.824C109.953 22.5893 110.567 22.472 111.249 22.472C111.932 22.472 112.54 22.5893 113.073 22.824C113.617 23.048 114.081 23.3627 114.465 23.768C114.849 24.1733 115.137 24.6373 115.329 25.16C115.532 25.6827 115.633 26.2373 115.633 26.824C115.633 27.4 115.532 27.9493 115.329 28.472C115.137 28.9947 114.849 29.4587 114.465 29.864C114.092 30.2693 113.633 30.5893 113.089 30.824C112.545 31.048 111.932 31.16 111.249 31.16ZM109.057 26.824C109.057 27.3147 109.153 27.752 109.345 28.136C109.537 28.5093 109.799 28.8027 110.129 29.016C110.46 29.2293 110.833 29.336 111.249 29.336C111.655 29.336 112.023 29.2293 112.353 29.016C112.684 28.792 112.945 28.4933 113.137 28.12C113.34 27.736 113.441 27.2987 113.441 26.808C113.441 26.328 113.34 25.896 113.137 25.512C112.945 25.128 112.684 24.8293 112.353 24.616C112.023 24.4027 111.655 24.296 111.249 24.296C110.833 24.296 110.46 24.408 110.129 24.632C109.799 24.8453 109.537 25.144 109.345 25.528C109.153 25.9013 109.057 26.3333 109.057 26.824ZM121.48 31.048C120.926 31.048 120.414 30.9413 119.944 30.728C119.486 30.504 119.086 30.1947 118.744 29.8C118.414 29.4053 118.158 28.952 117.976 28.44C117.795 27.928 117.704 27.384 117.704 26.808C117.704 26.2 117.8 25.6347 117.992 25.112C118.184 24.5893 118.451 24.1307 118.792 23.736C119.144 23.3307 119.555 23.0213 120.024 22.808C120.504 22.584 121.032 22.472 121.608 22.472C122.259 22.472 122.83 22.6213 123.32 22.92C123.811 23.208 124.216 23.5973 124.536 24.088V22.616H126.408V30.6C126.408 31.432 126.206 32.1413 125.8 32.728C125.406 33.3253 124.856 33.7787 124.152 34.088C123.448 34.408 122.648 34.568 121.752 34.568C120.846 34.568 120.078 34.4133 119.448 34.104C118.819 33.8053 118.28 33.3787 117.832 32.824L119 31.688C119.32 32.0827 119.72 32.392 120.2 32.616C120.691 32.84 121.208 32.952 121.752 32.952C122.211 32.952 122.627 32.8667 123 32.696C123.384 32.536 123.688 32.28 123.912 31.928C124.147 31.5867 124.264 31.144 124.264 30.6V29.544C123.987 30.024 123.592 30.3973 123.08 30.664C122.579 30.92 122.046 31.048 121.48 31.048ZM122.2 29.336C122.435 29.336 122.659 29.2987 122.872 29.224C123.086 29.1493 123.283 29.048 123.464 28.92C123.646 28.792 123.806 28.6427 123.944 28.472C124.083 28.2907 124.19 28.1093 124.264 27.928V25.928C124.136 25.5973 123.955 25.3093 123.72 25.064C123.496 24.8187 123.24 24.632 122.952 24.504C122.675 24.3653 122.382 24.296 122.072 24.296C121.742 24.296 121.443 24.3653 121.176 24.504C120.91 24.6427 120.68 24.84 120.488 25.096C120.296 25.3413 120.147 25.6187 120.04 25.928C119.944 26.2267 119.896 26.5413 119.896 26.872C119.896 27.2133 119.955 27.5333 120.072 27.832C120.19 28.1307 120.35 28.392 120.552 28.616C120.766 28.84 121.011 29.016 121.288 29.144C121.576 29.272 121.88 29.336 122.2 29.336ZM134.425 31V22.616H136.569V31H134.425ZM134.425 21.448V19.32H136.569V21.448H134.425ZM147.415 31H145.271V26.296C145.271 25.624 145.154 25.1333 144.919 24.824C144.684 24.5147 144.359 24.36 143.943 24.36C143.655 24.36 143.362 24.4347 143.063 24.584C142.775 24.7333 142.514 24.9413 142.279 25.208C142.044 25.464 141.874 25.7627 141.767 26.104V31H139.623V22.616H141.559V24.168C141.772 23.8053 142.044 23.5013 142.375 23.256C142.706 23 143.084 22.808 143.511 22.68C143.948 22.5413 144.407 22.472 144.887 22.472C145.41 22.472 145.836 22.568 146.167 22.76C146.508 22.9413 146.764 23.192 146.935 23.512C147.116 23.8213 147.239 24.1733 147.303 24.568C147.378 24.9627 147.415 25.3627 147.415 25.768V31ZM165.31 22.616H167.342L163.838 31H162.046L160.638 27.4L159.262 31H157.454L153.966 22.616H155.982L158.478 28.952L159.454 26.216L157.998 22.632H159.774L160.638 25.192L161.518 22.632H163.294L161.838 26.216L162.83 28.952L165.31 22.616ZM169.452 31V22.616H171.596V31H169.452ZM169.452 21.448V19.32H171.596V21.448H169.452ZM179.674 30.568C179.492 30.6427 179.274 30.728 179.018 30.824C178.762 30.92 178.484 30.9947 178.186 31.048C177.898 31.112 177.604 31.144 177.306 31.144C176.911 31.144 176.548 31.0747 176.218 30.936C175.887 30.7973 175.62 30.5787 175.418 30.28C175.226 29.9707 175.13 29.5707 175.13 29.08V24.264H174.026V22.616H175.13V19.896H177.274V22.616H179.034V24.264H177.274V28.36C177.284 28.648 177.364 28.856 177.514 28.984C177.663 29.112 177.85 29.176 178.074 29.176C178.298 29.176 178.516 29.1387 178.73 29.064C178.943 28.9893 179.114 28.9253 179.242 28.872L179.674 30.568ZM189.702 31H187.558V26.296C187.558 25.6453 187.43 25.16 187.174 24.84C186.929 24.52 186.588 24.36 186.15 24.36C185.894 24.36 185.622 24.4347 185.334 24.584C185.046 24.7333 184.785 24.9413 184.55 25.208C184.326 25.464 184.161 25.7627 184.054 26.104V31H181.91V19.32H184.054V24.168C184.364 23.6347 184.785 23.2187 185.318 22.92C185.852 22.6213 186.433 22.472 187.062 22.472C187.606 22.472 188.049 22.568 188.39 22.76C188.732 22.9413 188.998 23.192 189.19 23.512C189.382 23.8213 189.516 24.1733 189.59 24.568C189.665 24.952 189.702 25.352 189.702 25.768V31Z" fill="white"/>
</svg>
