<svg width="234" height="152" viewBox="0 0 234 152" fill="none" xmlns="http://www.w3.org/2000/svg">
<path d="M188.527 146.906C185.589 151.629 179.283 153.127 174.466 150.227C135.96 127.167 87.4853 121.945 30.398 134.732C24.8969 135.961 19.4134 132.582 18.16 127.187C16.9008 121.791 20.3338 116.415 25.8487 115.186C88.3215 101.193 141.909 107.218 185.139 133.12C189.957 136.019 191.484 142.182 188.527 146.906ZM208.6 103.124C204.899 109.023 197.026 110.885 191.014 107.256C146.931 80.6902 79.732 72.9965 27.5897 88.5145C20.8273 90.5171 13.6851 86.7807 11.6327 80.1622C9.59593 73.5322 13.4089 66.5432 20.1595 64.5271C79.7203 46.8087 153.765 55.3914 204.39 85.8917C210.402 89.5206 212.302 97.2374 208.6 103.124ZM210.324 57.5342C157.467 26.7536 70.2592 23.9235 19.7933 38.9403C11.6895 41.35 3.1195 36.8647 0.663672 28.9195C-1.79216 20.9704 2.77875 12.574 10.8885 10.1585C68.8198 -7.08369 165.124 -3.75238 225.979 31.6671C233.284 35.9085 235.673 45.1383 231.345 52.2752C227.037 59.4217 217.597 61.7776 210.332 57.5342H210.324Z" fill="#1ED760"/>
</svg>
